<svg width="256" height="256" viewBox="0 0 256 256" fill="none" xmlns="http://www.w3.org/2000/svg">
<path d="M244.28 52.28L203.72 11.72C196.22 4.22 186.04 0 175.44 0H16C7.16 0 0 7.16 0 16V175.44C0 186.04 4.22 196.22 11.72 203.72L52.28 244.28C59.78 251.78 69.96 256 80.56 256H240C248.84 256 256 248.84 256 240V80.56C256 69.96 251.78 59.78 244.28 52.28ZM206.4 72.22L122.22 218C120.08 221.72 116.12 224 111.82 224H82.2C79.02 224 75.96 222.74 73.72 220.48L51.5 198.26C47.66 194.42 46.88 188.48 49.6 183.78L133.78 38C135.92 34.28 139.88 32 144.18 32H173.8C176.98 32 180.04 33.26 182.28 35.52L204.5 57.74C208.34 61.58 209.12 67.52 206.4 72.22Z" fill="#201E1D"/>
</svg>
