<svg width="932" height="256" viewBox="0 0 932 256" fill="none" xmlns="http://www.w3.org/2000/svg">
<path d="M244.279 52.28L203.719 11.72C196.219 4.22 186.039 0 175.439 0H15.9999C7.15997 0 0 7.16 0 16V175.44C0 186.04 4.21998 196.22 11.72 203.72L52.2798 244.28C59.7798 251.78 69.9597 256 80.5597 256H239.999C248.839 256 255.999 248.84 255.999 240V80.56C255.999 69.96 251.779 59.78 244.279 52.28ZM206.399 72.22L122.22 218C120.08 221.72 116.12 224 111.82 224H82.1997C79.0197 224 75.9597 222.74 73.7197 220.48L51.4998 198.26C47.6598 194.42 46.8798 188.48 49.5998 183.78L133.779 38C135.919 34.28 139.879 32 144.179 32H173.799C176.979 32 180.039 33.26 182.279 35.52L204.499 57.74C208.339 61.58 209.119 67.52 206.399 72.22Z" fill="#201E1D"/>
<path d="M336 40H369.94V215.98H336V40Z" fill="#201E1D"/>
<path d="M456.678 112.66C438.838 112.66 426.258 124.98 426.258 152.64V216H394.078V88.8003H423.238V107.4C431.278 92.5603 445.358 84.7803 464.478 84.7803C494.398 84.7803 512.238 103.64 512.238 135.3V216H480.058V141.34C480.058 121.72 472.258 112.68 456.678 112.68V112.66Z" fill="#201E1D"/>
<path fill-rule="evenodd" clip-rule="evenodd" d="M584.132 84.76C550.192 84.76 526.812 110.4 526.812 152.38H526.833C526.833 194.1 550.212 220 584.152 220C603.252 220 618.592 211.7 627.892 197.12V215.98H657.052V40H625.112V104.36C615.812 91.8 601.472 84.76 584.132 84.76ZM592.432 111.9C612.292 111.9 625.872 128 625.872 152.38C625.872 176.76 612.532 192.6 592.432 192.6C572.332 192.6 559.752 176.78 559.752 152.38C559.752 127.98 572.572 111.9 592.432 111.9Z" fill="#201E1D"/>
<path fill-rule="evenodd" clip-rule="evenodd" d="M673.899 152.38C673.899 111.9 699.039 84.7598 739.259 84.7598C782.759 84.7598 806.379 116.44 799.839 160.94H706.059C707.819 182.06 719.879 194.12 739.239 194.12C755.079 194.12 764.639 185.82 767.139 177.52H799.059C794.039 202.16 771.899 220 739.219 220C699.239 220 673.859 193.36 673.859 152.38H673.899ZM768.679 139.06C768.419 121.72 757.359 109.9 738.519 109.9C721.679 109.9 709.859 119.96 706.839 139.06H768.679Z" fill="#201E1D"/>
<path d="M801.958 88.7803L838.657 143.08C842.177 148.6 841.677 152.88 838.657 157.4L798.938 215.98H836.397L863.797 175.26H864.797L891.957 215.98H929.677L889.697 157.4C886.677 152.88 886.177 148.36 889.697 143.08L926.397 88.7803H890.197L864.797 127H863.797L838.157 88.7803H801.958Z" fill="#201E1D"/>
</svg>
