<svg width="3616" height="296" viewBox="0 0 3616 296" fill="none" xmlns="http://www.w3.org/2000/svg">
<rect x="0.5" y="0.5" width="3615" height="295" rx="4.5" stroke="#9747FF" stroke-dasharray="10 5"/>
<path d="M264.279 72.28L223.719 31.72C216.219 24.22 206.039 20 195.439 20H35.9999C27.16 20 20 27.16 20 36V195.44C20 206.04 24.22 216.22 31.72 223.72L72.2798 264.28C79.7798 271.78 89.9597 276 100.56 276H259.999C268.839 276 275.999 268.84 275.999 260V100.56C275.999 89.96 271.779 79.78 264.279 72.28ZM226.399 92.22L142.22 238C140.08 241.72 136.12 244 131.82 244H102.2C99.0197 244 95.9597 242.74 93.7197 240.48L71.4998 218.26C67.6598 214.42 66.8798 208.48 69.5998 203.78L153.779 58C155.919 54.28 159.879 52 164.179 52H193.799C196.979 52 200.039 53.26 202.279 55.52L224.499 77.74C228.339 81.58 229.119 87.52 226.399 92.22Z" fill="#201E1D"/>
<path d="M356 60H389.94V235.98H356V60Z" fill="#201E1D"/>
<path d="M476.678 132.66C458.838 132.66 446.258 144.98 446.258 172.64V236H414.078V108.8H443.238V127.4C451.278 112.56 465.358 104.78 484.478 104.78C514.398 104.78 532.238 123.64 532.238 155.3V236H500.058V161.34C500.058 141.72 492.258 132.68 476.678 132.68V132.66Z" fill="#201E1D"/>
<path fill-rule="evenodd" clip-rule="evenodd" d="M604.132 104.76C570.192 104.76 546.812 130.4 546.812 172.38H546.833C546.833 214.1 570.212 240 604.152 240C623.252 240 638.592 231.7 647.892 217.12V235.98H677.052V60H645.112V124.36C635.812 111.8 621.472 104.76 604.132 104.76ZM612.432 131.9C632.292 131.9 645.872 148 645.872 172.38C645.872 196.76 632.532 212.6 612.432 212.6C592.332 212.6 579.752 196.78 579.752 172.38C579.752 147.98 592.572 131.9 612.432 131.9Z" fill="#201E1D"/>
<path fill-rule="evenodd" clip-rule="evenodd" d="M693.899 172.38C693.899 131.9 719.039 104.76 759.259 104.76C802.759 104.76 826.379 136.44 819.839 180.94H726.059C727.819 202.06 739.879 214.12 759.239 214.12C775.079 214.12 784.639 205.82 787.139 197.52H819.059C814.039 222.16 791.899 240 759.219 240C719.239 240 693.859 213.36 693.859 172.38H693.899ZM788.679 159.06C788.419 141.72 777.359 129.9 758.519 129.9C741.679 129.9 729.859 139.96 726.839 159.06H788.679Z" fill="#201E1D"/>
<path d="M821.958 108.78L858.657 163.08C862.177 168.6 861.677 172.88 858.657 177.4L818.938 235.98H856.397L883.797 195.26H884.797L911.957 235.98H949.677L909.697 177.4C906.677 172.88 906.177 168.36 909.697 163.08L946.397 108.78H910.197L884.797 147H883.797L858.157 108.78H821.958Z" fill="#201E1D"/>
<path d="M1596.28 72.28L1555.72 31.72C1548.22 24.22 1538.04 20 1527.44 20H1368C1359.16 20 1352 27.16 1352 36V195.44C1352 206.04 1356.22 216.22 1363.72 223.72L1404.28 264.28C1411.78 271.78 1421.96 276 1432.56 276H1592C1600.84 276 1608 268.84 1608 260V100.56C1608 89.96 1603.78 79.78 1596.28 72.28ZM1558.4 92.22L1474.22 238C1472.08 241.72 1468.12 244 1463.82 244H1434.2C1431.02 244 1427.96 242.74 1425.72 240.48L1403.5 218.26C1399.66 214.42 1398.88 208.48 1401.6 203.78L1485.78 58C1487.92 54.28 1491.88 52 1496.18 52H1525.8C1528.98 52 1532.04 53.26 1534.28 55.52L1556.5 77.74C1560.34 81.58 1561.12 87.52 1558.4 92.22Z" fill="#201E1D"/>
<path d="M2252.28 72.28L2211.72 31.72C2204.22 24.22 2194.04 20 2183.44 20H2024C2015.16 20 2008 27.16 2008 36V195.44C2008 206.04 2012.22 216.22 2019.72 223.72L2060.28 264.28C2067.78 271.78 2077.96 276 2088.56 276H2248C2256.84 276 2264 268.84 2264 260V100.56C2264 89.96 2259.78 79.78 2252.28 72.28ZM2214.4 92.22L2130.22 238C2128.08 241.72 2124.12 244 2119.82 244H2090.2C2087.02 244 2083.96 242.74 2081.72 240.48L2059.5 218.26C2055.66 214.42 2054.88 208.48 2057.6 203.78L2141.78 58C2143.92 54.28 2147.88 52 2152.18 52H2181.8C2184.98 52 2188.04 53.26 2190.28 55.52L2212.5 77.74C2216.34 81.58 2217.12 87.52 2214.4 92.22Z" fill="#FCFBFA"/>
<path d="M2344 60H2377.94V235.98H2344V60Z" fill="#FCFBFA"/>
<path d="M2464.68 132.66C2446.84 132.66 2434.26 144.98 2434.26 172.64V236H2402.08V108.8H2431.24V127.4C2439.28 112.56 2453.36 104.78 2472.48 104.78C2502.4 104.78 2520.24 123.64 2520.24 155.3V236H2488.06V161.34C2488.06 141.72 2480.26 132.68 2464.68 132.68V132.66Z" fill="#FCFBFA"/>
<path fill-rule="evenodd" clip-rule="evenodd" d="M2592.13 104.76C2558.19 104.76 2534.81 130.4 2534.81 172.38H2534.83C2534.83 214.1 2558.21 240 2592.15 240C2611.25 240 2626.59 231.7 2635.89 217.12V235.98H2665.05V60H2633.11V124.36C2623.81 111.8 2609.47 104.76 2592.13 104.76ZM2600.43 131.9C2620.29 131.9 2633.87 148 2633.87 172.38C2633.87 196.76 2620.53 212.6 2600.43 212.6C2580.33 212.6 2567.75 196.78 2567.75 172.38C2567.75 147.98 2580.57 131.9 2600.43 131.9Z" fill="#FCFBFA"/>
<path fill-rule="evenodd" clip-rule="evenodd" d="M2681.9 172.38C2681.9 131.9 2707.04 104.76 2747.26 104.76C2790.76 104.76 2814.38 136.44 2807.84 180.94H2714.06C2715.82 202.06 2727.88 214.12 2747.24 214.12C2763.08 214.12 2772.64 205.82 2775.14 197.52H2807.06C2802.04 222.16 2779.9 240 2747.22 240C2707.24 240 2681.86 213.36 2681.86 172.38H2681.9ZM2776.68 159.06C2776.42 141.72 2765.36 129.9 2746.52 129.9C2729.68 129.9 2717.86 139.96 2714.84 159.06H2776.68Z" fill="#FCFBFA"/>
<path d="M2809.96 108.78L2846.66 163.08C2850.18 168.6 2849.68 172.88 2846.66 177.4L2806.94 235.98H2844.4L2871.8 195.26H2872.8L2899.96 235.98H2937.68L2897.7 177.4C2894.68 172.88 2894.18 168.36 2897.7 163.08L2934.4 108.78H2898.2L2872.8 147H2871.8L2846.16 108.78H2809.96Z" fill="#FCFBFA"/>
<path d="M3584.28 72.28L3543.72 31.72C3536.22 24.22 3526.04 20 3515.44 20H3356C3347.16 20 3340 27.16 3340 36V195.44C3340 206.04 3344.22 216.22 3351.72 223.72L3392.28 264.28C3399.78 271.78 3409.96 276 3420.56 276H3580C3588.84 276 3596 268.84 3596 260V100.56C3596 89.96 3591.78 79.78 3584.28 72.28ZM3546.4 92.22L3462.22 238C3460.08 241.72 3456.12 244 3451.82 244H3422.2C3419.02 244 3415.96 242.74 3413.72 240.48L3391.5 218.26C3387.66 214.42 3386.88 208.48 3389.6 203.78L3473.78 58C3475.92 54.28 3479.88 52 3484.18 52H3513.8C3516.98 52 3520.04 53.26 3522.28 55.52L3544.5 77.74C3548.34 81.58 3549.12 87.52 3546.4 92.22Z" fill="#FCFBFA"/>
</svg>
